<svg xmlns="http://www.w3.org/2000/svg" width="20" height="20" viewBox="0 0 17 19" fill="none">
  <path d="M1 6.66667H16M1 6.66667V14.978C1 16.0358 1 16.5645 1.20436 16.9686C1.38413 17.324 1.67076 17.6132 2.02356 17.7943C2.42425 18 2.94906 18 3.9971 18H13.0029C14.0509 18 14.575 18 14.9757 17.7943C15.3285 17.6132 15.6161 17.324 15.7958 16.9686C16 16.5649 16 16.037 16 14.9812V6.66667M1 6.66667V5.9113C1 4.85342 1 4.32409 1.20436 3.92003C1.38413 3.56461 1.67076 3.27586 2.02356 3.09477C2.42464 2.88889 2.95008 2.88889 4.00018 2.88889H4.75M16 6.66667V5.90819C16 4.85238 16 4.32369 15.7958 3.92003C15.6161 3.56461 15.3285 3.27586 14.9757 3.09477C14.5746 2.88889 14.0503 2.88889 13.0002 2.88889H12.25M4.75 2.88889H12.25M4.75 2.88889V1M12.25 2.88889V1M11.3125 10.4444L7.5625 14.2222L5.6875 12.3333" stroke="#1C8C3A" stroke-linecap="round" stroke-linejoin="round"/>
</svg>