<svg xmlns="http://www.w3.org/2000/svg" width="20" height="20" viewBox="0 0 17 18" fill="none">
  <path d="M4.75 2.38889H4.00018C2.95008 2.38889 2.42464 2.38889 2.02356 2.59477C1.67076 2.77586 1.38413 3.06461 1.20436 3.42003C1 3.82409 1 4.35342 1 5.4113V6.16667M4.75 2.38889H12.25M4.75 2.38889V0.5M12.25 2.38889H13.0002C14.0503 2.38889 14.5746 2.38889 14.9757 2.59477C15.3285 2.77586 15.6161 3.06461 15.7958 3.42003C16 3.82369 16 4.35238 16 5.40819V6.16667M12.25 2.38889V0.5M1 6.16667V14.478C1 15.5358 1 16.0645 1.20436 16.4686C1.38413 16.824 1.67076 17.1132 2.02356 17.2943C2.42425 17.5 2.94906 17.5 3.9971 17.5H13.0029C14.0509 17.5 14.575 17.5 14.9757 17.2943C15.3285 17.1132 15.6161 16.824 15.7958 16.4686C16 16.0649 16 15.537 16 14.4812V6.16667M1 6.16667H16M12.25 13.7222H12.2519L12.2518 13.7241L12.25 13.7241V13.7222ZM8.5 13.7222H8.50187L8.50183 13.7241L8.5 13.7241V13.7222ZM4.75 13.7222H4.75187L4.75183 13.7241L4.75 13.7241V13.7222ZM12.2518 9.94444V9.94633L12.25 9.94629V9.94444H12.2518ZM8.5 9.94444H8.50187L8.50183 9.94633L8.5 9.94629V9.94444ZM4.75 9.94444H4.75187L4.75183 9.94633L4.75 9.94629V9.94444Z" stroke="#A970FF" stroke-linecap="round" stroke-linejoin="round"/>
</svg>