<svg xmlns="http://www.w3.org/2000/svg" viewBox="0 0 491.3 384"><defs><style>.cls-1{fill:#fff;}.cls-2{fill:#f4c2c9;}.cls-3{fill:#6dafa7;}.cls-4{fill:none;stroke:#22272e;stroke-linecap:round;stroke-linejoin:round;stroke-width:7.46px;}.cls-5{fill:#ffe779;}</style></defs><g id="Isolation_Mode" data-name="Isolation Mode"><path class="cls-1" d="M257.87,63.69s.42-39.37-9.94-62.16c0,0-111.88,20.3-132.6,32.32,0,0,18.64,18.65,24.45,41.44C146,97.66,257.05,102.22,257.87,63.69Z"/><path class="cls-2" d="M261.19,92.28s7-71.69,10.36-86.61c0,0-90.75,7.46-124.73,26.94l9.12,75.83Z"/><path class="cls-1" d="M361.88,147.8s-.41-53,14.09-78.31c0,0-85.36,1.65-104.42,12.84S255,147.39,255,147.39,358.15,153.61,361.88,147.8Z"/><rect class="cls-3" x="281.91" y="124.6" width="94.06" height="258.99"/><circle class="cls-4" cx="329.15" cy="329.72" r="18.23"/><polygon class="cls-3" points="187.84 384 187.84 63.69 131.49 77.36 131.49 350.44 187.84 384"/><rect class="cls-5" x="187.84" y="63.69" width="94.06" height="320.31"/><circle class="cls-4" cx="234.67" cy="329.72" r="18.23"/><line class="cls-4" x1="211.88" y1="259.69" x2="257.87" y2="259.69"/><line class="cls-4" x1="211.88" y1="277.92" x2="257.87" y2="277.92"/></g></svg>