<svg xmlns="http://www.w3.org/2000/svg" viewBox="0 0 491.3 384"><defs><style>.cls-1{fill:#b0d7c0;}.cls-2{fill:#6dafa7;}.cls-3,.cls-4,.cls-5{fill:none;stroke-linecap:round;stroke-linejoin:round;stroke-width:8.91px;}.cls-3{stroke:#22272e;}.cls-4{stroke:#f4c2c9;}.cls-5{stroke:#ffe779;}</style></defs><g id="Isolation_Mode" data-name="Isolation Mode"><path class="cls-1" d="M107.21,355.24,36.43,20.67A11.91,11.91,0,0,1,48.31,6.32H381.4a19.65,19.65,0,0,1,19.3,16.33l55.43,338a12,12,0,0,1-11.88,13.85l-317.74-4A19.25,19.25,0,0,1,107.21,355.24Z"/><path class="cls-2" d="M99.78,363.16,29,28.59A11.9,11.9,0,0,1,40.89,14.24H374a19.63,19.63,0,0,1,19.3,16.33l55.44,338a12,12,0,0,1-11.88,13.86l-317.74-4A19.65,19.65,0,0,1,99.78,363.16Z"/><polygon class="cls-3" points="137.89 336.44 79 57.3 354.18 57.3 400.2 339.4 137.89 336.44"/><line class="cls-3" x1="160.16" y1="57.3" x2="219.56" y2="337.42"/><line class="cls-3" x1="93.84" y1="128.07" x2="364.07" y2="128.07"/><line class="cls-3" x1="108.2" y1="196.37" x2="375.95" y2="196.37"/><line class="cls-3" x1="124.53" y1="265.66" x2="388.82" y2="269.12"/><line class="cls-3" x1="207.68" y1="91.94" x2="313.1" y2="91.94"/><line class="cls-3" x1="221.54" y1="162.22" x2="326.95" y2="162.22"/><line class="cls-3" x1="237.37" y1="231.02" x2="342.79" y2="232.5"/><line class="cls-3" x1="252.22" y1="298.82" x2="353.68" y2="301.3"/><line class="cls-4" x1="107.7" y1="75.11" x2="151.26" y2="108.27"/><line class="cls-4" x1="139.38" y1="75.11" x2="117.11" y2="108.27"/><line class="cls-4" x1="135.42" y1="214.68" x2="178.97" y2="247.35"/><line class="cls-4" x1="167.09" y1="214.68" x2="144.33" y2="247.35"/><line class="cls-4" x1="151.26" y1="283.48" x2="194.81" y2="316.64"/><line class="cls-4" x1="182.93" y1="283.48" x2="160.66" y2="316.64"/><polyline class="cls-5" points="124.53 158.26 139.38 173.6 160.66 145.89"/></g></svg>