<svg xmlns="http://www.w3.org/2000/svg" viewBox="0 0 491.3 384"><defs><style>.cls-1{fill:#6dafa7;}.cls-2{fill:#ffe779;}.cls-3{fill:none;stroke:#22272e;stroke-linecap:round;stroke-linejoin:round;stroke-width:11.76px;}</style></defs><g id="Isolation_Mode" data-name="Isolation Mode"><path class="cls-1" d="M267.38,361.35a22.22,22.22,0,1,0-22.22,22.21A22,22,0,0,0,267.38,361.35Z"/><path class="cls-2" d="M374.51,120.3a130.19,130.19,0,0,1-34,97.34A145.08,145.08,0,0,0,302,316.28v22.86A23.14,23.14,0,0,1,279.13,362H212.5a23.14,23.14,0,0,1-22.86-22.86V316.28c0-36.59-13.72-71.86-38.54-98a128.51,128.51,0,0,1-34.63-88.19C116.47,55.63,179.84-4.47,255,.76,318.33,4.68,369.94,56.28,374.51,120.3Z"/><line class="cls-3" x1="188.99" y1="316.28" x2="301.34" y2="316.28"/><line class="cls-3" x1="188.99" y1="338.49" x2="301.34" y2="338.49"/><path class="cls-3" d="M233.41,316.28v-179c0-16.34-18.29-26.13-32-17h0c-10.46,7.19-11.76,22.86-2,32l7.84,7.19"/><path class="cls-3" d="M256.92,316.28v-179c0-16.34,18.29-26.13,32-17h0c10.45,7.19,11.76,22.86,2,32l-7.84,7.19"/></g></svg>