<svg id="illustration" xmlns="http://www.w3.org/2000/svg" xmlns:xlink="http://www.w3.org/1999/xlink" viewBox="0 0 1024 768"><defs><style>.cls-1,.cls-14,.cls-15,.cls-18,.cls-19,.cls-20,.cls-22,.cls-23,.cls-4,.cls-6{fill:none;}.cls-2{fill:#eaf9f3;}.cls-3{clip-path:url(#clip-path);}.cls-4,.cls-6{stroke:#b8d8c7;}.cls-14,.cls-15,.cls-18,.cls-19,.cls-20,.cls-22,.cls-23,.cls-4,.cls-6{stroke-linecap:round;stroke-linejoin:round;}.cls-14,.cls-15,.cls-18,.cls-19,.cls-20,.cls-23,.cls-4{stroke-width:1.8px;}.cls-5{fill:#b8d8c7;}.cls-6{stroke-width:1.8px;}.cls-7{fill:#63737a;}.cls-8{fill:#22272e;}.cls-9{fill:#ffe779;}.cls-10{fill:#6dafa7;}.cls-11{fill:#f4c2c9;}.cls-12{fill:#020202;}.cls-13{fill:#fff;}.cls-14{stroke:#6dafa7;}.cls-15,.cls-22{stroke:#22272e;}.cls-16{fill:#b28d93;}.cls-17{fill:#896068;}.cls-18{stroke:#63737a;}.cls-19{stroke:#896068;}.cls-20{stroke:#f8ab5d;}.cls-21{fill:#f8ab5d;}.cls-22{stroke-width:1.8px;}.cls-23{stroke:#000;}</style><clipPath id="clip-path"><path class="cls-1" d="M766.3,575.1l-520-14.9a48.07,48.07,0,0,1-46.5-43.3l-25.1-248a48.18,48.18,0,0,1,47.2-53l578.8-8A48.21,48.21,0,0,1,849.2,262L815.5,532.9A48.27,48.27,0,0,1,766.3,575.1Z"/></clipPath></defs><path class="cls-2" d="M766.3,575.1l-520-14.9a48.07,48.07,0,0,1-46.5-43.3l-25.1-248a48.18,48.18,0,0,1,47.2-53l578.8-8A48.21,48.21,0,0,1,849.2,262L815.5,532.9A48.27,48.27,0,0,1,766.3,575.1Z"/><g class="cls-3"><path class="cls-4" d="M341.9,620.1H-73.6a15,15,0,0,1-15-15V369.4a15,15,0,0,1,15-15H341.9a15,15,0,0,1,15,15V605A15,15,0,0,1,341.9,620.1Z"/><path class="cls-4" d="M891,604.3H471.9a15,15,0,0,1-15-15V245a15,15,0,0,1,15-15H891a15,15,0,0,1,15,15V589.3A15,15,0,0,1,891,604.3Z"/><path class="cls-4" d="M227.1,354.4H206.8a4.32,4.32,0,0,1-4.3-3.8l-1.6-14.4a4.33,4.33,0,0,1,4.3-4.8h23.5a4.34,4.34,0,0,1,4.3,4.8l-1.6,14.4A4.32,4.32,0,0,1,227.1,354.4Z"/><path class="cls-5" d="M214.5,331.5s-8-.8-9.6-11.6c0,0,7.2,2.1,9.5,7.2,0,0,1-11.4,6.4-12.5,0,0,2.4,8.5-1.4,12.7,0,0,2.9-4.8,10.3-4.7a13.6,13.6,0,0,1-9.2,8.8"/><path class="cls-4" d="M338.7,404.2H248.5a4.23,4.23,0,0,1-4.2-4.2V372.6a4.23,4.23,0,0,1,4.2-4.2h90.2a4.23,4.23,0,0,1,4.2,4.2V400A4.1,4.1,0,0,1,338.7,404.2Z"/><path class="cls-5" d="M304,378H283.2a1.54,1.54,0,0,1-1.5-1.5h0a1.54,1.54,0,0,1,1.5-1.5H304a1.54,1.54,0,0,1,1.5,1.5h0A1.54,1.54,0,0,1,304,378Z"/><path class="cls-4" d="M338.7,450H248.5a4.23,4.23,0,0,1-4.2-4.2V418.4a4.23,4.23,0,0,1,4.2-4.2h90.2a4.23,4.23,0,0,1,4.2,4.2v27.4A4.1,4.1,0,0,1,338.7,450Z"/><path class="cls-5" d="M304,423.8H283.2a1.54,1.54,0,0,1-1.5-1.5h0a1.54,1.54,0,0,1,1.5-1.5H304a1.54,1.54,0,0,1,1.5,1.5h0A1.47,1.47,0,0,1,304,423.8Z"/><path class="cls-4" d="M801.9,482.3H711.7a4.23,4.23,0,0,1-4.2-4.2V450.7a4.23,4.23,0,0,1,4.2-4.2h90.2a4.23,4.23,0,0,1,4.2,4.2v27.4A4.1,4.1,0,0,1,801.9,482.3Z"/><path class="cls-5" d="M767.2,456.2H746.4a1.54,1.54,0,0,1-1.5-1.5h0a1.54,1.54,0,0,1,1.5-1.5h20.8a1.54,1.54,0,0,1,1.5,1.5h0A1.54,1.54,0,0,1,767.2,456.2Z"/><path class="cls-4" d="M686.1,482.3H595.9a4.23,4.23,0,0,1-4.2-4.2V450.7a4.23,4.23,0,0,1,4.2-4.2h90.2a4.23,4.23,0,0,1,4.2,4.2v27.4A4.23,4.23,0,0,1,686.1,482.3Z"/><path class="cls-5" d="M651.4,456.2H630.6a1.54,1.54,0,0,1-1.5-1.5h0a1.54,1.54,0,0,1,1.5-1.5h20.8a1.54,1.54,0,0,1,1.5,1.5h0A1.54,1.54,0,0,1,651.4,456.2Z"/><path class="cls-4" d="M223.7,404.2H133.5a4.23,4.23,0,0,1-4.2-4.2V372.6a4.23,4.23,0,0,1,4.2-4.2h90.2a4.23,4.23,0,0,1,4.2,4.2V400A4.1,4.1,0,0,1,223.7,404.2Z"/><path class="cls-5" d="M189,378H168.2a1.54,1.54,0,0,1-1.5-1.5h0a1.54,1.54,0,0,1,1.5-1.5H189a1.54,1.54,0,0,1,1.5,1.5h0A1.47,1.47,0,0,1,189,378Z"/><path class="cls-4" d="M223.7,450H133.5a4.23,4.23,0,0,1-4.2-4.2V418.4a4.23,4.23,0,0,1,4.2-4.2h90.2a4.23,4.23,0,0,1,4.2,4.2v27.4A4.1,4.1,0,0,1,223.7,450Z"/><path class="cls-5" d="M189,423.8H168.2a1.54,1.54,0,0,1-1.5-1.5h0a1.54,1.54,0,0,1,1.5-1.5H189a1.54,1.54,0,0,1,1.5,1.5h0A1.42,1.42,0,0,1,189,423.8Z"/><path class="cls-4" d="M933.2,334.8h-455a4.65,4.65,0,0,1-4.6-4.6V250.5a4.65,4.65,0,0,1,4.6-4.6h455a4.65,4.65,0,0,1,4.6,4.6v79.7A4.59,4.59,0,0,1,933.2,334.8Z"/><path class="cls-4" d="M933.2,433.7h-455a4.65,4.65,0,0,1-4.6-4.6V349.4a4.65,4.65,0,0,1,4.6-4.6h455a4.65,4.65,0,0,1,4.6,4.6v79.7A4.53,4.53,0,0,1,933.2,433.7Z"/><rect class="cls-4" x="504.3" y="284.5" width="9.9" height="50.3"/><rect class="cls-4" x="514.1" y="298.2" width="10.3" height="36.6"/><rect class="cls-4" x="802.6" y="383.3" width="9.9" height="50.3"/><rect class="cls-4" x="812.5" y="397" width="10.3" height="36.6"/><rect class="cls-4" x="782.5" y="383.3" width="9.9" height="50.3"/><rect class="cls-6" x="745.2" y="402.72" width="50.3" height="9.9" transform="translate(149.65 1019.52) rotate(-72.48)"/><rect class="cls-4" x="792.4" y="397" width="10.3" height="36.6"/><rect class="cls-4" x="669.1" y="284.5" width="9.9" height="50.3"/><rect class="cls-4" x="679" y="298.2" width="10.3" height="36.6"/><rect class="cls-4" x="571.3" y="284.5" width="9.9" height="50.3"/><rect class="cls-6" x="533.99" y="303.9" width="50.3" height="9.9" transform="translate(96.27 749.05) rotate(-72.48)"/><rect class="cls-4" x="581.2" y="298.2" width="10.3" height="36.6"/><path class="cls-5" d="M812.4,291.1l1.1-14.9a1.65,1.65,0,0,0-1.7-1.8h-8.6a1.71,1.71,0,0,0-1.7,1.8l1.1,14.9s-9,5.8-8.9,10.6c.1,3.7,2.3,21.4,3.3,29.2a4.32,4.32,0,0,0,4.3,3.8h12.4a4.32,4.32,0,0,0,4.3-3.8c1-7.8,3.2-25.5,3.3-29.2C821.4,296.8,812.4,291.1,812.4,291.1Z"/><path class="cls-5" d="M772.5,291.1l1.1-14.9a1.65,1.65,0,0,0-1.7-1.8h-8.6a1.71,1.71,0,0,0-1.7,1.8l1.1,14.9s-9,5.8-8.9,10.6c.1,3.7,2.3,21.4,3.3,29.2a4.32,4.32,0,0,0,4.3,3.8h12.4a4.32,4.32,0,0,0,4.3-3.8c1-7.8,3.2-25.5,3.3-29.2C781.5,296.8,772.5,291.1,772.5,291.1Z"/><line class="cls-4" x1="173.2" y1="528.1" x2="1129" y2="528.1"/></g><path class="cls-7" d="M394.5,301,290.7,324.5a5.06,5.06,0,0,1-6.1-4.2L263.7,187.6a5.06,5.06,0,0,1,5.8-5.8l108,18.1a5.23,5.23,0,0,1,4.2,4.1l15.9,92.3A4.15,4.15,0,0,1,394.5,301Z"/><path class="cls-8" d="M400.3,300.9,295.8,324.5a5.13,5.13,0,0,1-6.2-4.2L268.5,186.7a5.09,5.09,0,0,1,5.9-5.8l108.7,18.2a5.22,5.22,0,0,1,4.2,4.2l16.1,92.9A4.12,4.12,0,0,1,400.3,300.9Z"/><path class="cls-9" d="M313.2,211c.5,2.9-1.3,5-4,4.8s-5.4-2.8-5.9-5.8,1.4-5.1,4.1-4.8A7.12,7.12,0,0,1,313.2,211Z"/><path class="cls-9" d="M316.2,229.3l-9.8-.4a5.51,5.51,0,0,1-4.8-4.6h0c-.9-5.4,2.6-9.5,7.5-9.1h0c4.8.4,9.3,4.9,10.2,10.1h0C319.7,227.6,318.3,229.4,316.2,229.3Z"/><path class="cls-7" d="M322.6,297.9h0a3.81,3.81,0,0,1-4.1-3.4l-8-49.5c-.3-2.1,1-3.9,2.9-3.9h0a4.54,4.54,0,0,1,4.1,3.8l7.9,48.5C325.7,295.6,324.5,297.6,322.6,297.9Z"/><path class="cls-10" d="M314,267.1l4.4,27.4a3.81,3.81,0,0,0,4.1,3.4h0a3.74,3.74,0,0,0,2.8-4.4l-4.4-26.9a4.17,4.17,0,0,0-4.1-3.6h0C315,263.1,313.7,264.9,314,267.1Z"/><path class="cls-11" d="M345.8,214.2c.4,2.6-1,4.6-3.2,4.4s-4.4-2.5-4.9-5.2,1-4.6,3.3-4.4S345.3,211.5,345.8,214.2Z"/><path class="cls-11" d="M348.5,230.7l-7.9-.3c-1.8-.1-3.6-1.9-4-4.1h0c-.8-4.9,1.9-8.6,5.9-8.3h0c3.9.3,7.7,4.4,8.5,9.1h0C351.3,229.2,350.2,230.8,348.5,230.7Z"/><path class="cls-7" d="M354.9,292.6h0c-1.5.3-3.1-1.1-3.4-3.1l-7.4-44.6c-.3-1.9.7-3.5,2.3-3.5h0c1.6,0,3.1,1.6,3.4,3.5l7.3,43.7C357.4,290.6,356.5,292.4,354.9,292.6Z"/><path class="cls-10" d="M347.2,263.5l4.3,25.8c.3,1.8,1.7,3.3,3.1,3.3,1.7-.1,2.8-1.9,2.5-4l-4.3-25.5c-.3-1.9-1.8-3.4-3.4-3.3h0C347.9,260,346.9,261.6,347.2,263.5Z"/><path class="cls-10" d="M372.6,216.8c.4,2.4-.7,4.2-2.5,4s-3.7-2.3-4.1-4.7.8-4.2,2.6-4S372.2,214.4,372.6,216.8Z"/><path class="cls-10" d="M375.2,231.9l-6.6-.3c-1.5-.1-3-1.7-3.4-3.7h0c-.8-4.5,1.4-7.8,4.8-7.6h0c3.3.3,6.5,4,7.2,8.2h0C377.5,230.5,376.6,232,375.2,231.9Z"/><path class="cls-7" d="M381.5,288.3h0c-1.3.2-2.6-1.1-2.9-2.8L371.7,245c-.3-1.8.5-3.2,1.8-3.2h0c1.3,0,2.6,1.4,2.9,3.1l6.8,39.8C383.6,286.5,382.8,288,381.5,288.3Z"/><path class="cls-10" d="M376.7,274l1.9,11.3c.3,1.7,1.4,3,2.7,3s2.3-1.7,2-3.6l-1.9-11.2c-.3-1.7-1.6-3.1-2.8-2.9h0C377.2,270.7,376.4,272.2,376.7,274Z"/><path class="cls-7" d="M790.4,342.7l-98.5-11.5a5.43,5.43,0,0,1-4.8-5.8l7.6-107.2a5.45,5.45,0,0,1,4.9-5l102.6-10.8a4.24,4.24,0,0,1,4.7,4.6L795.2,338.8A4.43,4.43,0,0,1,790.4,342.7Z"/><path class="cls-8" d="M786.1,342.7l-99-11.6a5.43,5.43,0,0,1-4.8-5.8l7.6-107.8a5.55,5.55,0,0,1,4.9-5.1l103.1-10.9a4.24,4.24,0,0,1,4.7,4.6L790.9,338.6A4.34,4.34,0,0,1,786.1,342.7Z"/><path class="cls-7" d="M723.9,241l-24.3,1.2a1.65,1.65,0,0,1-1.7-1.8l1-14.5a1.61,1.61,0,0,1,1.5-1.5l24.4-2a1.68,1.68,0,0,1,1.8,1.8l-1.2,15.3A1.54,1.54,0,0,1,723.9,241Z"/><path class="cls-9" d="M736.6,251.7l-2.7,34.9-39.2-1.2.5-7.4,5.4-7.2a2.87,2.87,0,0,1,4.3-.4h0a2.89,2.89,0,0,0,4.6-.8l4.3-8.9a2.91,2.91,0,0,1,4.9-.5l5.1,6.4a2.91,2.91,0,0,0,4.8-.4Z"/><path class="cls-9" d="M698.6,320.1h0a1.54,1.54,0,0,1-1.4-1.6l.8-11.2a1.54,1.54,0,0,1,1.6-1.4h0a1.5,1.5,0,0,1,1.4,1.7l-.8,11.2A1.41,1.41,0,0,1,698.6,320.1Z"/><path class="cls-9" d="M711.6,319.8l1.2-15.9a1.54,1.54,0,0,1,1.6-1.4h.2a1.5,1.5,0,0,1,1.4,1.7l-1.2,15.9a1.5,1.5,0,0,1-1.7,1.4h-.2A1.74,1.74,0,0,1,711.6,319.8Z"/><path class="cls-9" d="M726,321l1.6-20.3a1.83,1.83,0,0,1,1.8-1.6h0A1.66,1.66,0,0,1,731,301l-1.6,20.3a1.71,1.71,0,0,1-1.9,1.6h0A2,2,0,0,1,726,321Z"/><path class="cls-10" d="M740.4,322.3l2.1-25a1.83,1.83,0,0,1,1.8-1.6h.2a1.66,1.66,0,0,1,1.6,1.9l-2.1,25a1.71,1.71,0,0,1-1.9,1.6h-.2A1.77,1.77,0,0,1,740.4,322.3Z"/><path class="cls-10" d="M754.8,323.7l2.5-29.7a1.83,1.83,0,0,1,1.8-1.6h.4a1.66,1.66,0,0,1,1.6,1.9L758.6,324a1.71,1.71,0,0,1-1.9,1.6h-.3A1.83,1.83,0,0,1,754.8,323.7Z"/><path class="cls-11" d="M771.3,326.9h-.5a1.86,1.86,0,0,1-1.6-1.9l2.9-34.4a1.83,1.83,0,0,1,1.8-1.6h.5a1.8,1.8,0,0,1,1.7,1.9l-2.9,34.4A1.77,1.77,0,0,1,771.3,326.9Z"/><path class="cls-10" d="M772,256.5l4.3,7.5c-3.6,4.8-8.1,7.8-12.8,7.8-9.2,0-15.5-11.5-14.3-25.7s9.4-26.5,18.8-27.2c4.8-.4,8.9,2.3,11.7,6.9l-5.6,7.9c-1.6-2.8-4.1-4.4-7-4.3-5.6.4-10.7,7.7-11.4,16.4s3.2,15.6,8.7,15.5C767.1,261.3,769.8,259.5,772,256.5Z"/><path class="cls-9" d="M783.1,244.8c-.7,7.5-3.2,14.4-6.8,19.3l-4.3-7.5a22.55,22.55,0,0,0,4-11.5,19.63,19.63,0,0,0-2.1-11.3l5.6-7.9C782.3,230.5,783.7,237.2,783.1,244.8Z"/><path class="cls-7" d="M789.3,212.5c.1-.9-.3-1.6-1-1.6a1.68,1.68,0,0,0-1.2,1.7c-.1.9.3,1.6.9,1.6S789.2,213.5,789.3,212.5Z"/><path class="cls-7" d="M795.4,212c.1-.9-.4-1.6-1-1.6a1.91,1.91,0,0,0-1.3,1.8c-.1.9.4,1.6,1,1.6S795.3,212.9,795.4,212Z"/><path class="cls-8" d="M663.9,251.4l-32.7,2a2.83,2.83,0,0,1-3-3l4.3-64.5a3.72,3.72,0,0,1,3.1-3.4l33.4-6a2.8,2.8,0,0,1,3.3,2.9l-4.9,68.4A3.7,3.7,0,0,1,663.9,251.4Z"/><path class="cls-10" d="M661.4,250.7l-32.7,2a2.83,2.83,0,0,1-3-3l4.3-64.5a3.72,3.72,0,0,1,3.1-3.4l33.4-6a2.8,2.8,0,0,1,3.3,2.9l-4.9,68.4A3.7,3.7,0,0,1,661.4,250.7Z"/><path class="cls-12" d="M649.5,184.6l-4,.7c-.4.1-.7-.2-.7-.7h0a1.06,1.06,0,0,1,.8-.9l4-.7c.4-.1.7.2.7.7h0A.88.88,0,0,1,649.5,184.6Z"/><path class="cls-12" d="M652.7,184.1l-.4.1c-.4.1-.7-.2-.7-.7h0a1,1,0,0,1,.8-.9l.4-.1c.4-.1.7.2.7.7h0A1,1,0,0,1,652.7,184.1Z"/><path class="cls-8" d="M647.1,192.4,637,194a1.26,1.26,0,0,1-1.4-1.4h0a2,2,0,0,1,1.6-1.8l10.1-1.6a1.19,1.19,0,0,1,1.4,1.4h0A2,2,0,0,1,647.1,192.4Z"/><path class="cls-9" d="M659.9,210.6l-24.3,3.1a1.24,1.24,0,0,1-1.4-1.3l.9-13a1.18,1.18,0,0,1,1-1.1l24.4-3.7a1.24,1.24,0,0,1,1.4,1.3l-1,13.6A1.16,1.16,0,0,1,659.9,210.6Z"/><path class="cls-8" d="M644.9,222.9,634.8,224a1.26,1.26,0,0,1-1.4-1.4h0a1.82,1.82,0,0,1,1.6-1.7l10.1-1.1a1.22,1.22,0,0,1,1.4,1.4h0A1.81,1.81,0,0,1,644.9,222.9Z"/><path class="cls-11" d="M643.4,245.2l-10,.7c-.8.1-1.4-.6-1.4-1.5h0a1.91,1.91,0,0,1,1.6-1.7l10-.8a1.3,1.3,0,0,1,1.4,1.5h0A1.83,1.83,0,0,1,643.4,245.2Z"/><path class="cls-9" d="M642.6,237.9l-8.7.7a1.16,1.16,0,0,1-1.3-1.3l.5-8a1.11,1.11,0,0,1,1.1-1.1l8.8-.9a1.16,1.16,0,0,1,1.3,1.3l-.6,8.2A1.27,1.27,0,0,1,642.6,237.9Z"/><path class="cls-13" d="M658,236.6l-9.3.8a1.21,1.21,0,0,1-1.3-1.3l.6-8.3a1.11,1.11,0,0,1,1.1-1.1l9.3-.9a1.16,1.16,0,0,1,1.3,1.3l-.6,8.4A1.18,1.18,0,0,1,658,236.6Z"/><circle class="cls-14" cx="365" cy="151" r="18.4"/><path class="cls-10" d="M358.1,150.5a4.5,4.5,0,0,1,0-5.4,3.38,3.38,0,0,1,4.8,0,4,4,0,0,1,.9,2.7,3.83,3.83,0,0,1-.9,2.7,3.38,3.38,0,0,1-4.8,0Zm3.7-1a3,3,0,0,0,.4-1.8,3.21,3.21,0,0,0-.4-1.8,1.5,1.5,0,0,0-2.4,0,3,3,0,0,0-.5,1.8,3.45,3.45,0,0,0,.5,1.8,1.43,1.43,0,0,0,1.2.6A1.56,1.56,0,0,0,361.8,149.5Zm7.2-5.4h.9c.3,0,.5.4.3.6l-8.8,12.9c-.1.1-.2.2-.3.2h-.9c-.3,0-.5-.4-.3-.6l8.8-12.9C368.7,144.2,368.8,144.1,369,144.1ZM367.2,157a4.5,4.5,0,0,1,0-5.4,3.38,3.38,0,0,1,4.8,0,4.5,4.5,0,0,1,0,5.4,3,3,0,0,1-2.4,1A3.31,3.31,0,0,1,367.2,157Zm3.6-1.1a3.81,3.81,0,0,0,0-3.4,1.68,1.68,0,0,0-1.5-.7,1.7,1.7,0,0,0-1,.6,3,3,0,0,0-.5,1.8,3.2,3.2,0,0,0,.5,1.8,1.22,1.22,0,0,0,1,.6A1.49,1.49,0,0,0,370.8,155.9Z"/><path class="cls-8" d="M617.1,176.3c-20.2,12.8-41.7,11.8-47-1-4.7-11.2,5.3-27.6,21.6-37.5,16-9.8,34.8-11.3,43.1-2.7C644.1,144.8,636.8,163.7,617.1,176.3Z"/><path class="cls-9" d="M614.6,172.2c-20.2,12.8-41.7,11.8-47-1-4.7-11.2,5.3-27.6,21.6-37.5,16-9.8,34.8-11.3,43.1-2.7C641.6,140.7,634.3,159.6,614.6,172.2Z"/><path class="cls-10" d="M608.9,163.7c-12.1,7.6-25.3,7.4-29-.1-3.5-6.9,2.6-17.4,13.2-23.9s22.6-7.2,27.5-1.4C625.8,144.6,620.9,156.1,608.9,163.7Z"/><path class="cls-11" d="M603.8,155.9c-4.8,3-10.1,3-11.8.2s.7-7.2,5.3-10,9.6-3,11.5-.4S608.5,152.9,603.8,155.9Z"/><path class="cls-8" d="M599,146.4h0a4,4,0,0,1-5.4-1.3L584,126a2.21,2.21,0,0,1,.8-2.8h0a2.2,2.2,0,0,1,2.9.6l12.5,17.3A3.77,3.77,0,0,1,599,146.4Z"/><path class="cls-10" d="M586.4,129.7l-4.3-.3a1.38,1.38,0,0,0-1.2,2.2h0a18,18,0,0,0,8.1,6.1l2,.8c.2.1.5-.2.3-.4l-3.9-7.7C587.3,130,586.9,129.8,586.4,129.7Z"/><path class="cls-10" d="M590,127.5l1.8-3.9a1.36,1.36,0,0,1,2.5,0h0a17.28,17.28,0,0,1,1.6,10l-.3,2.2c0,.2-.4.3-.5.1l-5-7A1.69,1.69,0,0,1,590,127.5Z"/><line class="cls-15" x1="598.5" y1="145.6" x2="601.7" y2="151"/><path class="cls-16" d="M510,585.5c-2.2-3.9-23.5,0-23.5,0s.4,8.3.6,14.6a34,34,0,0,0,22.7,1.3C509.7,594.9,510,585.5,510,585.5Z"/><path class="cls-9" d="M487,600.1c.1,2.9.1,5.3.1,6.3,0,1.2-1.4,3.4-1.9,6.8-.4,2.5,0,5.9-.5,8.9-.5,3.6-1.1,7.2-1.4,10.6-.9,9.9,4.2,11,9.9,11.7s24.6,1.2,25.2-4.3-4.8-15.7-6-20.4-1.9-10-2.5-13.1c-.1-.9-.2-2.8-.2-5.2A34.58,34.58,0,0,1,487,600.1Z"/><path class="cls-8" d="M518.5,640c-.6,5.5-19.5,4.9-25.2,4.3s-10.8-1.8-9.9-11.7c.3-3.3.8-7,1.4-10.6.5-3,0-6.4.5-8.9a30.3,30.3,0,0,1,1.8-5.9c.4,2.6,2.4,3.4,2.6,9.1.3,5.9-.3,8.9,6.6,7,9.1-2.5,12.6.6,14.5-.9,1.6-1.4,1-6.2.9-7.1.3,1.4.6,2.9.9,4.3C513.6,624.3,519.1,634.6,518.5,640Z"/><path class="cls-17" d="M507.4,594.5a24.13,24.13,0,0,0,2.5-.8c.1-4.4.2-8.3.2-8.3-2.2-3.9-23.5,0-23.5,0s.1,3,.3,6.8C493.1,594.6,500.2,596.1,507.4,594.5Z"/><ellipse class="cls-13" cx="502.3" cy="623.9" rx="5.6" ry="3.6"/><path class="cls-9" d="M544.6,602.6c.5,3.9.8,7.3.6,8.2-.5,2.1-2.1,10.9-3.4,14.7s-8.7,14.6-3.8,17.9,29.9,1.3,32.6-1,1.8-8.7.8-16.9-4-16.6-4-17.8c0-.4-.1-3.5-.2-7.3C560.4,603.8,552.5,605.1,544.6,602.6Z"/><path class="cls-16" d="M542.8,590s1.1,6.8,1.8,12.6c7.9,2.5,15.8,1.2,22.6-2.2-.3-7.2-.7-17.2-1.1-17.8C565.6,581.7,545,581.3,542.8,590Z"/><path class="cls-8" d="M570.7,642.4c-2.7,2.3-27.7,4.4-32.6,1s2.5-14.2,3.8-17.9c.9-2.7,2-8.1,2.7-11.7-.2,1.2-1.8,10.6,0,11.2s6.7-3.3,13-1.9,9.5,2.3,9.5-1.6-1.2-10.3-.6-11.4,1-2.3,1-2.3c0,1.2,3,9.6,4,17.8S573.4,640,570.7,642.4Z"/><path class="cls-17" d="M566.9,593.5c-.2-5.4-.5-10.5-.8-10.9-.5-.9-21.2-1.3-23.4,7.4,0,0,.4,2.8,1,6.3C552,598.1,559.8,596.6,566.9,593.5Z"/><ellipse class="cls-13" cx="553.1" cy="625" rx="5.6" ry="3.6"/><path class="cls-8" d="M563.2,334.6s9.7,17.7,4.2,61.7-8.3,55.1-7.3,57.9,5.9,23.9,6.2,56.5,1,48.2,3.9,57.3,4.2,15.9-3.4,21.3-20.8,4.7-27,1.8-6.5-7.8-6-18.7-4.9-44.7-9.4-65.2c-2.7-12.4-5-26.7-6.5-37a133.43,133.43,0,0,1-1.5-13.4c0-3.9-6-61.3-6-64.2s-6.5-4.9-8.1-17.2,1.3-40.7,1.3-40.7S557.7,326.9,563.2,334.6Z"/><path class="cls-8" d="M472.2,331.2s-10.9,26.2-4.7,73.8,7,52.2,7.3,54.3.5,37.7,3.4,68.6-2.9,46.8,0,54.3,12.2,9.4,18.7,9.1,18.7-2.6,18.7-14.6-1.6-30.9,0-56.1,4-50.9,4.7-62.9,8-81.6,9.3-91.5-3.3-26-21.4-32.3C490.1,327.8,472.2,331.2,472.2,331.2Z"/><path class="cls-18" d="M465.6,373.4s5.9-1.4,8-8.8a79.28,79.28,0,0,0,2.6-12.4"/><path class="cls-18" d="M568.9,376s-7.7-3.6-10.1-11.8-2.1-12.8-2.1-12.8"/><path class="cls-18" d="M496.8,384.8c5.7.2,13.4,6.6,13.4,6.6a46.91,46.91,0,0,1,8.7-5.6"/><ellipse class="cls-18" cx="494.2" cy="459.8" rx="14.6" ry="15"/><ellipse class="cls-18" cx="535.9" cy="459.8" rx="14.6" ry="15"/><path class="cls-18" d="M517.9,470.1a133.43,133.43,0,0,1-1.5-13.4c0-3.9-6-61.3-6-64.2s-6.5-4.9-8.1-17.2"/><path class="cls-16" d="M408.6,194.7s-.9-3-1.3-11.4c-.1-2,3.1-6.4,3.5-7.7s3.4-.8,2.6,3.6,2.3,12.5,1.4,15.6S408.6,196.1,408.6,194.7Z"/><path class="cls-8" d="M400.4,168l27,55.8a4.61,4.61,0,0,0,4.4,2.7l40.5-.7a2.45,2.45,0,0,0,2.2-3.5l-23.8-56a4.77,4.77,0,0,0-4.5-2.9l-43.6,1A2.52,2.52,0,0,0,400.4,168Z"/><path class="cls-10" d="M415.8,160.3l15-.6a3,3,0,0,1,2.9,2.1l.6,2a1,1,0,0,1-.9,1.3l-18.1.5a1.08,1.08,0,0,1-1-.8l-.3-2.2A1.94,1.94,0,0,1,415.8,160.3Z"/><path class="cls-16" d="M455.2,259.6l-3.4,2.8s-4.5-14.2-8.6-23.9-6.7-22-6.6-23.4,1.3-5.4-1.4-9.6a16.5,16.5,0,0,0-5.8-5.7s2.3-1.1,6.6-2.9,2.3-3.8-.3-3.5-9.1,1.2-9.1,1.2l5.1-4c1.9-1.5,5.9-3.1,4.9-4.7-.9-1.4-5.1.1-7,.7s-8.6,3.9-8.6,3.9,4-4.7,5.8-7,6.6-4.5,6-6.8-6.5,1-9.3,2.7-8.1,7.1-8.1,7.1.2-5.2.4-7.5,1.6-8.1-.1-9.5c-2.2-1.8-3.4,3.8-4.5,8.5s-3.7,14.2-3.1,17,4,6.2,6.9,10,6,8.3,6.5,9.6,4.2,61.2,7.5,69.4,10.9,22.3,42.5-2.7c0,0,2.9-17.5-2.9-22.2C462.7,254.6,455.2,259.6,455.2,259.6Z"/><path class="cls-10" d="M493.9,227.5s-7.7,1.4-17.4,11.8-21.3,20.3-21.3,20.3,9,20,14.4,26c0,0,18.9-12.6,26.3-20S504.6,230.1,493.9,227.5Z"/><path class="cls-15" d="M459.2,256.1s6.3,15.2,14.7,26.5"/><path class="cls-19" d="M451.8,262.4a68.35,68.35,0,0,1,2.8,8.8"/><path class="cls-19" d="M426.6,194.6a20.46,20.46,0,0,0-2.2.6,6,6,0,0,0-2.2,1.2"/><path class="cls-19" d="M429.3,199.8a10.78,10.78,0,0,0-1.8,1.1"/><path class="cls-19" d="M421,190.5a9.05,9.05,0,0,0-2.3,2.1"/><path class="cls-19" d="M415.4,186.6a13.07,13.07,0,0,0-2.3,2"/><path class="cls-8" d="M421.7,215.9s3.9,4.9,15.2,1.2c0,0,1.2,4.5,1.3,5.7,0,0-9.4,3.8-15.9-.8A41.63,41.63,0,0,1,421.7,215.9Z"/><ellipse class="cls-13" cx="425.71" cy="220.17" rx="3" ry="4.7" transform="translate(-35.51 89.87) rotate(-11.57)"/><path class="cls-9" d="M489.9,230.1c2.8-2.2,5.6-4.9,30.4-5.7,28.5-.9,42.1,2.5,46,18.8s-12.5,54.3-12.5,58.7,10.3,25.8,11.5,35.5c0,0-13.9,15.3-49,14.8s-46.8-14.8-46.8-18.5,12.2-24.8,13.5-34.1-10.9-21.1-10.4-33,10.9-22.1,11.5-24.7C485.5,237.1,486.9,232.4,489.9,230.1Z"/><path class="cls-10" d="M503.2,234.2s-.1,20,8.5,34.2c0,0,15.1-15.4,20.3-31,0,0-11.8,3.8-18.8,1.3A59.33,59.33,0,0,1,503.2,234.2Z"/><path class="cls-13" d="M510.7,221.7a14.62,14.62,0,0,0-8.4,8.3c-2.9,6.8-1.8,16.7.8,16.6s12.6-7.2,12.6-7.2S515.2,222.5,510.7,221.7Z"/><path class="cls-13" d="M515.6,239.5l5.5,7.2c2.9,3.8,5.7,8,12.9-3.6s2.6-19.5-1.6-21.4S515,235.8,515.6,239.5Z"/><path class="cls-16" d="M510.7,214a136.17,136.17,0,0,1-1.4,13.9c-1,5.6.6,10.7,6.3,11.6s17.4-5.3,18.1-13.8c0,0-1-20.1.7-26.4S511,209.6,510.7,214Z"/><path class="cls-17" d="M528.4,213.7c-3.7,5.9-11.3,6.4-18.1,6.5-.2,2.2-.5,4.6-.8,6.7C518.1,226.5,526.6,222.1,528.4,213.7Z"/><path class="cls-20" d="M563.7,330.5c-26.8,17.5-68,19.7-92.3-2.1"/><path class="cls-20" d="M511.7,268.4s-7.8,10.3-9.8,17.2"/><path class="cls-21" d="M512.8,275.4a1.6,1.6,0,1,1-1.6,1.6A1.6,1.6,0,0,1,512.8,275.4Z"/><circle class="cls-21" cx="509.2" cy="284.8" r="1.6"/><path class="cls-16" d="M579.9,259.1s7.5,17.1,11.2,30.2-.1,21.2-8.2,25.1-14.5-6.1-26.6-36.4C556.3,278.1,574.4,253.9,579.9,259.1Z"/><path class="cls-16" d="M570.7,308.5s5,10.2,16.3,9.1,38.6-8.8,43.8-13.2,2.7-16.1-2.2-16.6-19.3,1-27.5,1.1a51.89,51.89,0,0,0-10.3.8,22.24,22.24,0,0,0-3.9,1.2,22.5,22.5,0,0,0-4.2,2.4C577.7,297.1,570.7,308.5,570.7,308.5Z"/><path class="cls-19" d="M591,289.8a22.24,22.24,0,0,0-3.9,1.2,22.5,22.5,0,0,0-4.2,2.4"/><path class="cls-10" d="M544.6,236.1c2.1-5.4,8.2-8.9,13.1-7a28.92,28.92,0,0,1,13.2,10.5c7.7,11.3,15.2,31.7,15.2,31.7s-8,5.6-28.5,12.7a181.15,181.15,0,0,1-10-19.4C545.2,258.9,541.1,245.3,544.6,236.1Z"/><path class="cls-15" d="M555.4,278.7s15.4-3.9,28.4-13"/><path class="cls-10" d="M597,293.2l67.8-6.9a3,3,0,0,1,3.4,2.7l6.9,54a3,3,0,0,1-2.4,3.4l-66.2,14.3a3,3,0,0,1-3.7-2.6l-8.5-61.3A3.05,3.05,0,0,1,597,293.2Z"/><path class="cls-15" d="M612.8,314.1l45.3-6.5a1.93,1.93,0,0,1,2.2,1.6l4.4,26a1.91,1.91,0,0,1-1.5,2.2l-45.7,9.3a1.9,1.9,0,0,1-2.3-1.6l-4.1-28.7A2.1,2.1,0,0,1,612.8,314.1Z"/><line class="cls-15" x1="650.2" y1="308.7" x2="655.5" y2="339"/><line class="cls-15" x1="619.8" y1="321.3" x2="643.1" y2="317.7"/><line class="cls-15" x1="621.8" y1="329.5" x2="645.1" y2="325"/><line class="cls-15" x1="623.4" y1="337.3" x2="646.7" y2="332.8"/><polyline class="cls-15" points="654.8 315 656.3 316.1 658 312.9"/><polyline class="cls-15" points="656.1 321.8 657.6 322.9 659.4 319.8"/><polyline class="cls-15" points="657.4 329.1 658.9 330.2 660.6 327.1"/><path class="cls-9" d="M609.7,304.3l-.4-2.5a1.34,1.34,0,0,1,1.2-1.5l10.5-1.2a1.34,1.34,0,0,1,1.5,1.1l.3,2.2a1.34,1.34,0,0,1-1.1,1.5l-10.4,1.4A1.26,1.26,0,0,1,609.7,304.3Z"/><path class="cls-16" d="M649.4,286c-1.5-1.6-2.3-2.2-8.1-2.6-2-.1-5.6.1-8.5.2-1.4,0-2.3-.3-3.3-.2-3,.5-6.5,4-8.2,5.2s-4.8,2.7-4.8,2.7l9.9-1a1.41,1.41,0,0,1,1.5.8,38.15,38.15,0,0,1,2.2,5.2c1.2,3.8,2.5,8.6,4.2,7.4,1-.7,1-3.9.7-6.1,0,.3.1.5.1.8.3,3.8-.3,9.5,1.9,9.6,2,.1,2.3-2.3,2.3-2.3a1.4,1.4,0,0,0,1.9.9c1.6-.6,3.9-5.5,4.6-8.4.1,1.3-.2,1.8.7,2.1,1.9.6,3.4-5.5,3.9-9.9C650.7,287.6,650.2,286.8,649.4,286Z"/><path class="cls-19" d="M639.2,305.6s1-5.2,1.4-7.3a38.44,38.44,0,0,0,0-9,12.81,12.81,0,0,0-1-2.5"/><path class="cls-19" d="M645.8,298.1a61.19,61.19,0,0,0,1.3-8.2,14,14,0,0,0-.5-3.1"/><path class="cls-19" d="M635.1,299.7a46.24,46.24,0,0,0,0-5.4,35.48,35.48,0,0,0-1.9-6.5"/><path class="cls-8" d="M551.3,174.7a13.11,13.11,0,0,0-9.6-12.6,13,13,0,0,0-13-11.8,11.79,11.79,0,0,0-4.6.9,13.16,13.16,0,0,0-9.8-4.5,12.81,12.81,0,0,0-10.9,5.9c-.4,0-.8-.1-1.2-.1A13,13,0,0,0,491.6,173a13.16,13.16,0,0,0-1.3,5.6,13,13,0,1,0,26,0,12.43,12.43,0,0,0-1.4-5.8,17.73,17.73,0,0,0,4-.8,13.44,13.44,0,0,0,6.4,4,15,15,0,0,0,1.6,5.2,13,13,0,1,0,23.6,7.5,12.75,12.75,0,0,0-1.7-6.4A12.38,12.38,0,0,0,551.3,174.7Z"/><path class="cls-16" d="M515,169.1a16.56,16.56,0,0,0-16.7,15.4c-.3,3.9-.7,9.3-1.4,13.8-1.2,7.8,0,19.4,12.3,22.2s24.3-9,27-19.2,5-25.1-9.5-30A41.22,41.22,0,0,0,515,169.1Z"/><path class="cls-8" d="M532.3,196.4s-1.9-1.6-2.5-8.1a2,2,0,0,0-1.5-1.7c-2.2-.5-6.2-2.8-7.6-11.9a41,41,0,0,1-12.6,5.7c-6.8,1.6-11.1-4.6-13.3-7.8-3.9-5.7-3.4-7.1-1.6-9.3,8.9-11,24.7-6.4,27.6-5.4s13.2.2,20.3,7.8,5.5,18.5,3.6,25.2-11.4,18.6-11.4,19.5S532.3,196.4,532.3,196.4Z"/><path class="cls-16" d="M530.9,196.9s1.9-5,6.2-4.3c3.4.5,4.1,12.2-4.2,13.9"/><path class="cls-8" d="M505,191.5a6.09,6.09,0,0,1-.8,3.2,12.13,12.13,0,0,1-1,1.4c-.2.2-.3.4-.4.5s-.2.3-.3.5a2.3,2.3,0,0,0,.2,2.1,6.79,6.79,0,0,0,2,2.2,4.77,4.77,0,0,1-3.1-1.3,3.11,3.11,0,0,1-.9-1.7,3.07,3.07,0,0,1,.2-2.1,4.05,4.05,0,0,1,.5-.9l.6-.6c.4-.3.7-.7,1.1-1C503.7,193.1,504.3,192.4,505,191.5Z"/><path class="cls-15" d="M511.5,208.5a6.87,6.87,0,0,0,5.6-4.1"/><path class="cls-8" d="M515.5,185.8c-.6-.7-.6-2.5.6-2.9s4.4,0,6.5,2.7-2.1.6-3.3.4S516,186.3,515.5,185.8Z"/><path class="cls-8" d="M503.6,184.9a1.08,1.08,0,0,0,1.4-.7,2,2,0,0,0-.2-1.9c-.5-.7-4.6-.2-5.3,1.7-.5,1.3,2.1.2,3,.5A3,3,0,0,1,503.6,184.9Z"/><path class="cls-8" d="M502.6,191.3a1.59,1.59,0,0,0-1.4-1.8h0a1.59,1.59,0,0,0-1.8,1.4v.4l3.2.4Z"/><path class="cls-8" d="M518.1,193.2a1.61,1.61,0,1,0-3.2-.4v.3l3.2.4Z"/><path class="cls-8" d="M537.6,197.1a1.9,1.9,0,0,0-.9-.3c-.2,0-.3.2-.5.3l-.1.1v1.1a9.24,9.24,0,0,1-.1,2.3,2.33,2.33,0,0,1-.8,1.2,1.53,1.53,0,0,1-1.3.2c.3-.3.6-.5.6-.8a1.1,1.1,0,0,0,0-.8c-.1-.5-.2-1.2-.3-2a6.15,6.15,0,0,1,.1-1.3,5.9,5.9,0,0,1,.4-.8,1.38,1.38,0,0,1,.4-.3l.3-.2a1.59,1.59,0,0,1,1.5,0A1.55,1.55,0,0,1,537.6,197.1Z"/><ellipse class="cls-22" cx="497.14" cy="192.03" rx="7.9" ry="6.1" transform="translate(253.79 666.16) rotate(-83.95)"/><ellipse class="cls-22" cx="518.27" cy="193.66" rx="7.9" ry="7" transform="translate(271.05 688.63) rotate(-83.95)"/><path class="cls-15" d="M503.3,191.6s2-1.6,8.1.9"/><line class="cls-15" x1="525.2" y1="193.7" x2="532.3" y2="194.7"/><path class="cls-10" d="M418.4,352.8c-1.2,0,4-12.2,9.3-10.5S425.1,352.8,418.4,352.8Z"/><path class="cls-10" d="M419,354.4s-5.8-7.2-11.5-5.6S408.9,358.7,419,354.4Z"/><path class="cls-10" d="M417.3,347.2s8.6-14.8,4.9-18.3C415.8,322.6,407.7,341.2,417.3,347.2Z"/><path class="cls-8" d="M431.7,380.8l-12.6,2.8a7.49,7.49,0,0,1-8.5-4.4l-5.7-13.8a4.64,4.64,0,0,1,3.3-6.3L431,354a4.72,4.72,0,0,1,5.7,4.3l.7,14.9A7.35,7.35,0,0,1,431.7,380.8Z"/><path class="cls-23" d="M419.8,357.5s-4-12.1-2.5-17.8"/></svg>