<svg xmlns="http://www.w3.org/2000/svg" viewBox="0 0 491.3 384"><defs><style>.cls-1{fill:#22272e;}.cls-2{fill:#63737a;}</style></defs><g id="Isolation_Mode" data-name="Isolation Mode"><path class="cls-1" d="M160.51,323.16,7,264.73a11.07,11.07,0,0,1-7-10.52H0l246.22-35.85s30.39,51,27.27,52.21S160.51,323.16,160.51,323.16Z"/><path class="cls-2" d="M0,254.6l164.4,57.65,94.28-45.58s-20.64-46.36-23-46S0,254.6,0,254.6Z"/><path class="cls-1" d="M157.39,313.42,211.15,85.13a25.75,25.75,0,0,1,23.77-19.48L481.53,59c6.23,0,11.29,5.85,9.35,12.08L440.62,246.41A25.29,25.29,0,0,1,422.31,264L169.08,324.72C161.68,326.28,155.44,320.44,157.39,313.42Z"/><ellipse class="cls-2" cx="352.66" cy="177.39" rx="23.37" ry="14.8" transform="translate(83.02 465.71) rotate(-73.62)"/></g></svg>