<svg xmlns="http://www.w3.org/2000/svg" viewBox="0 0 491.3 384"><defs><style>.cls-1{fill:#22272e;}.cls-2{fill:#f4c2c9;}.cls-3{fill:#b0d7c0;}.cls-4{fill:#ffe779;}</style></defs><g id="Isolation_Mode" data-name="Isolation Mode"><path class="cls-1" d="M312.31,374.24l-177.71,8.2c-14.21.55-24.06-10.93-22.41-25.7L141.71,61.47c1.64-15.31,14.22-29,28.44-30.62l181-23.51c15.85-2.19,26.79,9.29,25.15,25.15L342.94,344.71C341.84,360,327.62,373.15,312.31,374.24Z"/><path class="cls-1" d="M299.19,368.23l-177.71,8.2c-14.22.55-24.06-10.94-22.42-25.7L128.59,55.46c1.64-15.31,14.22-29,28.43-30.62L338,1.32c15.86-2.18,26.8,9.3,25.16,25.16L329.81,338.7C328.17,354.56,314.5,367.68,299.19,368.23Z"/><path class="cls-2" d="M307.39,100.84,169.05,115.61A6.92,6.92,0,0,1,161.4,108l3.28-33.9c.54-3.28,2.73-6,6-6l138.89-16.4a6.93,6.93,0,0,1,7.66,7.66l-3.83,35.54A6.07,6.07,0,0,1,307.39,100.84Z"/><path class="cls-3" d="M178.89,194.89l-18,1.64a6.91,6.91,0,0,1-7.65-7.65l2.18-19.69c.55-3.28,2.74-6,6-6l18-1.64a6.92,6.92,0,0,1,7.66,7.65l-2.19,19.69C184.91,192.16,182.18,194.34,178.89,194.89Z"/><path class="cls-3" d="M298.64,184.5,279,186.14a6.92,6.92,0,0,1-7.66-7.65l2.19-20.78c.55-3.28,2.74-6,6-6l19.68-2.18a6.92,6.92,0,0,1,7.66,7.65l-2.19,20.78A7,7,0,0,1,298.64,184.5Z"/><path class="cls-3" d="M238,189.42l-18.59,1.64a6.92,6.92,0,0,1-7.66-7.65l2.19-20.23c.55-3.28,2.73-6,6-6l18.59-1.64a6.92,6.92,0,0,1,7.65,7.66L244,183.41A6.06,6.06,0,0,1,238,189.42Z"/><path class="cls-3" d="M171.79,262.15l-18,1.09c-4.37.55-7.65-3.28-7.65-7.65l2.18-19.69a7,7,0,0,1,6.57-6l18-1.64a6.92,6.92,0,0,1,7.66,7.65l-2.19,19.69C177.8,259.41,175.07,262.15,171.79,262.15Z"/><path class="cls-3" d="M291.54,254l-19.69,1.64c-4.37.54-7.65-3.28-7.65-7.66l2.18-20.23c.55-3.28,3.28-6,6.56-6L292.63,220a6.92,6.92,0,0,1,7.65,7.66l-2.18,20.78C297.55,250.67,294.82,253.4,291.54,254Z"/><path class="cls-3" d="M230.84,258.32l-18.59,1.09c-4.37.55-7.66-3.28-7.66-7.65l2.19-20.23c.55-3.28,3.28-6,6.56-6l18.59-1.64a6.92,6.92,0,0,1,7.66,7.66l-2.19,20.23A8.14,8.14,0,0,1,230.84,258.32Z"/><path class="cls-3" d="M164.68,329.4l-17.5,1.1c-4.37,0-7.65-3.28-7.11-7.66l2.19-19.68c.55-3.28,3.28-6,6.56-6l17.5-1.09c4.37-.55,7.65,3.28,7.11,7.65l-2.19,19.69C171.24,326.67,168,329.4,164.68,329.4Z"/><path class="cls-4" d="M283.88,322.84l-19.68,1.1c-4.38,0-7.66-3.28-7.11-7.66l2.18-20.23c.55-3.28,3.29-6,6.57-6l19.68-1.09c4.38-.55,7.66,3.28,7.11,7.66l-2.19,20.77A7,7,0,0,1,283.88,322.84Z"/><path class="cls-4" d="M223.73,326.12l-18.59,1.1c-4.37,0-7.65-3.28-7.11-7.66l2.19-19.68c.55-3.28,3.28-6,6.56-6l18.59-1.09c4.38-.55,7.66,3.28,7.11,7.65l-2.19,20.24A7,7,0,0,1,223.73,326.12Z"/></g></svg>